<svg width="91" height="91" viewBox="0 0 91 91" fill="none" xmlns="http://www.w3.org/2000/svg">
<g id="fa-solid:signature" clip-path="url(#clip0_323_527)">
<path id="Vector" d="M87.851 33.8322C80.5489 34.4489 70.1314 43.4709 64.8592 46.4312C60.757 48.7395 57.2188 50.7307 54.1316 50.7307C50.9457 50.7307 50.4664 47.8761 51.129 41.5854C51.284 40.1758 52.7783 27.6296 45.1096 28.1759C41.5713 28.4402 36.0454 32.5459 21.2156 50.3783L27.0658 32.1054C31.3512 18.731 19.5663 5.40959 8.78225 13.991L1.04312 20.4931C-4.08299e-05 21.3213 -0.31017 23.0658 0.352378 24.3874L2.77702 29.145C3.43957 30.4666 4.83515 30.8543 5.89241 30.0085L14.0685 23.1539C16.6623 21.0922 19.8059 24.4226 18.6782 27.9292L4.83515 71.2063C3.87657 74.1842 5.21576 78.9419 9.02189 78.9419C10.1919 78.9419 11.3479 78.378 12.2078 77.2855C18.1566 69.8495 34.0155 50.7307 41.9801 42.7837C41.67 47.8056 41.6841 53.1624 44.8841 57.55C47.0409 60.5103 50.1422 62.0081 54.1175 62.0081C59.1359 62.0081 63.7033 59.4355 68.5385 56.7218C73.1904 54.1139 82.4943 45.6911 88.0484 45.1272C89.2466 45.0039 90.1911 43.8409 90.1911 42.3431V36.6868C90.2193 35.0833 89.1338 33.7265 87.851 33.8322Z" fill="#F5F7FF"/>
</g>
<defs>
<clipPath id="clip0_323_527">
<rect width="90.2194" height="90.2194" fill="white"/>
</clipPath>
</defs>
</svg>
