<svg width="75" height="60" viewBox="0 0 75 60" fill="none" xmlns="http://www.w3.org/2000/svg">
<g id="Group">
<path id="Vector" d="M27.7593 19.125C27.7593 20.8158 27.0284 22.4373 25.7273 23.6328C24.4263 24.8284 22.6617 25.5 20.8218 25.5C18.9818 25.5 17.2173 24.8284 15.9162 23.6328C14.6152 22.4373 13.8843 20.8158 13.8843 19.125C13.8843 17.4342 14.6152 15.8127 15.9162 14.6172C17.2173 13.4216 18.9818 12.75 20.8218 12.75C22.6617 12.75 24.4263 13.4216 25.7273 14.6172C27.0284 15.8127 27.7593 17.4342 27.7593 19.125Z" fill="#B6CEF2"/>
<path id="Vector_2" d="M9.25928 0C6.80603 0 4.45325 0.895533 2.71854 2.48959C0.983828 4.08365 0.00927734 6.24566 0.00927734 8.5V51C0.00927734 53.2543 0.983828 55.4163 2.71854 57.0104C4.45325 58.6045 6.80603 59.5 9.25928 59.5H64.7593C67.2125 59.5 69.5653 58.6045 71.3 57.0104C73.0347 55.4163 74.0093 53.2543 74.0093 51V8.5C74.0093 6.24566 73.0347 4.08365 71.3 2.48959C69.5653 0.895533 67.2125 0 64.7593 0H9.25928ZM64.7593 4.25C65.9859 4.25 67.1623 4.69777 68.0297 5.4948C68.897 6.29183 69.3843 7.37283 69.3843 8.5V36.125L51.9157 27.8503C51.4819 27.6506 50.9909 27.5813 50.512 27.6523C50.033 27.7232 49.5905 27.9307 49.247 28.2455L32.0883 44.013L19.7858 36.482C19.3416 36.2103 18.8088 36.088 18.2777 36.1361C17.7467 36.1841 17.25 36.3994 16.872 36.7455L4.63428 46.75V8.5C4.63428 7.37283 5.12155 6.29183 5.98891 5.4948C6.85627 4.69777 8.03265 4.25 9.25928 4.25H64.7593Z" fill="#B6CEF2"/>
</g>
</svg>
