<svg xmlns="http://www.w3.org/2000/svg" id="capa-1" viewBox="0 0 500 372.56"><g id="freepik--background-complete--inject-23"><rect y="327.4" width="500" height="0.25" style="fill:#e0e0e0"></rect><rect x="401.33" y="340.46" width="28.39" height="0.25" style="fill:#e0e0e0"></rect><rect x="368.63" y="340.58" width="25.37" height="0.25" style="fill:#e0e0e0"></rect><rect x="242.47" y="334.79" width="34.15" height="0.25" style="fill:#e0e0e0"></rect><rect x="293.56" y="342.54" width="47.46" height="0.25" style="fill:#e0e0e0"></rect><rect x="96.89" y="334.5" width="45.95" height="0.25" style="fill:#e0e0e0"></rect><rect x="148.39" y="334.5" width="15.61" height="0.25" style="fill:#e0e0e0"></rect><rect x="62.46" y="339" width="40.21" height="0.25" style="fill:#e0e0e0"></rect><path d="M237,282.8H43.91a5.71,5.71,0,0,1-5.7-5.71V5.66A5.71,5.71,0,0,1,43.91,0H237a5.71,5.71,0,0,1,5.71,5.71h0V277.09A5.71,5.71,0,0,1,237,282.8ZM43.91.2a5.46,5.46,0,0,0-5.45,5.46V277.09a5.46,5.46,0,0,0,5.45,5.46H237a5.48,5.48,0,0,0,5.46-5.46V5.66A5.48,5.48,0,0,0,237,.2Z" style="fill:#e0e0e0"></path><path d="M453.31,282.8H260.21a5.73,5.73,0,0,1-5.71-5.71V5.66A5.72,5.72,0,0,1,260.21,0h193.1A5.71,5.71,0,0,1,459,5.66V277.09a5.7,5.7,0,0,1-5.69,5.71ZM260.21.2a5.48,5.48,0,0,0-5.46,5.46V277.09a5.48,5.48,0,0,0,5.46,5.46h193.1a5.48,5.48,0,0,0,5.46-5.46V5.66A5.48,5.48,0,0,0,453.31.2Z" style="fill:#e0e0e0"></path><rect x="71.36" y="24.27" width="257" height="129.56" style="fill:#e0e0e0"></rect><rect x="74.71" y="24.27" width="257" height="129.56" style="fill:#efefef"></rect><rect x="80.73" y="30.34" width="244.97" height="117.4" style="fill:#f4f4f4"></rect><polygon points="98.87 147.75 165.31 30.35 196.44 30.35 130.01 147.75 98.87 147.75" style="fill:#fff"></polygon><polygon points="140.46 147.75 206.9 30.35 238.03 30.35 171.6 147.75 140.46 147.75" style="fill:#fff"></polygon><polygon points="227 147.75 293.43 30.35 306.25 30.35 239.82 147.75 227 147.75" style="fill:#fff"></polygon><rect x="236.89" y="30.34" width="9.06" height="117.4" style="fill:#e0e0e0"></rect><rect x="153.79" y="30.34" width="9.06" height="117.4" style="fill:#e0e0e0"></rect><rect x="240.07" y="25.83" width="9.06" height="125.78" style="fill:#f4f4f4"></rect><rect x="156.97" y="25.83" width="9.06" height="125.78" style="fill:#f4f4f4"></rect><rect x="323.17" y="30.34" width="2.53" height="117.4" style="fill:#e0e0e0"></rect><path d="M391.84,192.08s-18.34-31.61,7.1-56.77c0,0,6.64,4.32,6.54,10.14s-7.11,7.29-5.61,12.15,8.13,9.62,3.79,13.63.69,7.59.4,12.5S391.84,192.08,391.84,192.08Z" style="fill:#e0e0e0"></path><path d="M394.72,197.25s7.43-35.78-24.65-51.64c0,0-4.93,6.2-3,11.69s9.05,4.68,9.15,9.76-4.68,11.69.71,14.13,1.73,7.42,3.56,12S394.72,197.25,394.72,197.25Z" style="fill:#ebebeb"></path><path d="M378.39,188.16s.32,14.92,12.66,14.92,12.67-14.92,12.67-14.92Z" style="fill:#f4f4f4"></path><path d="M292.76,191.46s.42,11.62,16.65,11.62,16.66-11.62,16.66-11.62Z" style="fill:#ebebeb"></path><path d="M330.43,194.34s.32,8.74,12.52,8.74,12.51-8.74,12.51-8.74Z" style="fill:#ebebeb"></path><rect x="276.87" y="210.33" width="27.32" height="109.57" style="fill:#ebebeb"></rect><rect x="282.11" y="319.89" width="134.72" height="7.51" style="fill:#ebebeb"></rect><rect x="304.19" y="210.32" width="117.89" height="109.57" style="fill:#f4f4f4"></rect><rect x="314.93" y="220.92" width="96.41" height="38.86" style="fill:#ebebeb"></rect><rect x="314.93" y="266.86" width="96.41" height="38.86" style="fill:#ebebeb"></rect><path d="M374,225.18H352.31a2.67,2.67,0,0,1-2.67-2.66h0a2.69,2.69,0,0,1,2.67-2.67H374a2.69,2.69,0,0,1,2.67,2.67h0A2.67,2.67,0,0,1,374,225.18Z" style="fill:#f4f4f4"></path><path d="M374,271.12H352.31a2.67,2.67,0,0,1-2.67-2.66h0a2.69,2.69,0,0,1,2.67-2.67H374a2.69,2.69,0,0,1,2.67,2.67h0A2.67,2.67,0,0,1,374,271.12Z" style="fill:#f4f4f4"></path><rect x="304.18" y="203.08" width="121.53" height="7.25" style="fill:#ebebeb"></rect><rect x="273.04" y="203.07" width="31.14" height="7.25" style="fill:#e0e0e0"></rect><rect x="360.44" y="42.51" width="59.18" height="68.18" style="fill:#ebebeb"></rect><rect x="362.21" y="42.51" width="64.13" height="68.18" style="fill:#f4f4f4"></rect><rect x="367.58" y="47.88" width="53.39" height="57.43" style="fill:#fff"></rect><rect x="380.52" y="61.8" width="27.51" height="29.59" rx="4.71" style="fill:#f4f4f4"></rect><rect x="262.22" y="263.92" width="6.87" height="63.48" style="fill:#e0e0e0"></rect><rect x="265.65" y="263.92" width="3.44" height="63.48" style="fill:#f4f4f4;isolation:isolate;opacity:0.5"></rect><path d="M239,281.7h-4.72a4.66,4.66,0,0,0,1.65-3.56H180a4.66,4.66,0,0,0,1.66,3.56H177a6.3,6.3,0,0,0-6.3,6.3v18.37a6.3,6.3,0,0,0,6.3,6.3h62a6.3,6.3,0,0,0,6.3-6.3V288A6.3,6.3,0,0,0,239,281.7Z" style="fill:#f4f4f4"></path><rect x="145.42" y="295.27" width="46.09" height="17.4" rx="4.24" style="fill:#ebebeb"></rect><rect x="145.42" y="291.43" width="46.09" height="4.46" rx="1.42" style="fill:#e0e0e0"></rect><path d="M195.76,235.57s.65,21,25.25,21,25.25-21,25.25-21Z" style="fill:#ebebeb"></path><rect x="77.11" y="256.58" width="30.68" height="7.34" style="fill:#e0e0e0"></rect><rect x="107.8" y="256.58" width="185.1" height="7.34" style="fill:#f4f4f4"></rect><rect x="77.11" y="312.67" width="30.68" height="7.34" style="fill:#e0e0e0"></rect><rect x="77.12" y="263.92" width="6.87" height="63.48" style="fill:#e0e0e0"></rect><rect x="80.55" y="263.92" width="3.44" height="63.48" style="fill:#f4f4f4;isolation:isolate;opacity:0.5"></rect><rect x="104.36" y="263.92" width="6.87" height="63.48" style="fill:#f4f4f4"></rect><rect x="104.36" y="263.92" width="3.44" height="63.48" style="fill:#e0e0e0"></rect><rect x="286.02" y="263.92" width="6.87" height="63.48" style="fill:#f4f4f4"></rect><rect x="286.02" y="263.92" width="3.44" height="63.48" style="fill:#e0e0e0"></rect><rect x="107.8" y="312.67" width="185.1" height="7.34" style="fill:#f4f4f4"></rect><rect x="119.84" y="252.25" width="37.32" height="4.33" style="fill:#e0e0e0"></rect><rect x="157.16" y="252.24" width="13.37" height="4.33" style="fill:#ebebeb"></rect></g><g id="freepik--Shadow--inject-23"><ellipse cx="250" cy="361.24" rx="193.89" ry="11.32" style="fill:#f5f5f5"></ellipse></g><g id="freepik--Character--inject-23"><path d="M217.87,95.7c.07,11.85-8.42,11.73-8.25,8s-1.93-12.49,0-11.64S217.84,90.46,217.87,95.7Z" style="fill:#1a2e35"></path><path d="M212.53,117.16c1.17-.09,3.52,1,3.73,4.09a5.81,5.81,0,0,0,2.59,4.49s-3.89.47-6.44-1.55c-2.08-1.63-3-5.2-1.91-6A5.58,5.58,0,0,1,212.53,117.16Z" style="fill:#1a2e35"></path><path d="M211,108.74c2,1.77,3.83,6.45-.68,8.67s-11.6-3-11.6-3l7.79-3.61Z" style="fill:#1a2e35"></path><path d="M213.22,117.59a8.87,8.87,0,0,0-.54-1.89.41.41,0,0,0-.53-.24h-.08l-2.77,1.85a.41.41,0,0,0-.11.57h0a.57.57,0,0,0,.11.11,7.1,7.1,0,0,0,1.28.74c.65.26,2-.48,2.46-.8A.38.38,0,0,0,213.22,117.59Z" style="fill:#FF725E"></path><path d="M213.22,117.59a8.87,8.87,0,0,0-.54-1.89.41.41,0,0,0-.53-.24h-.08l-2.77,1.85a.41.41,0,0,0-.11.57h0a.57.57,0,0,0,.11.11,7.1,7.1,0,0,0,1.28.74c.65.26,2-.48,2.46-.8A.38.38,0,0,0,213.22,117.59Z" style="isolation:isolate;opacity:0.30000001192092896"></path><path d="M183.41,112.68c-1.11-.37-3.65.13-4.59,3.09a5.84,5.84,0,0,1-3.58,3.75s3.67,1.38,6.63,0c2.4-1.09,4.1-4.35,3.27-5.39A5.5,5.5,0,0,0,183.41,112.68Z" style="fill:#1a2e35"></path><path d="M194.43,92.33c-4.05,1.1-9.5,5.9-7.08,11.79-2.39,1.63-5.45,6.32-1.87,9.32,3.85,3.23,13.32-1.3,13.32-1.3l.07-1.54L200,99.14Z" style="fill:#1a2e35"></path><path d="M182.64,112.94a8.6,8.6,0,0,1,1-1.71.42.42,0,0,1,.59-.06l.06.06,2.24,2.45a.41.41,0,0,1,0,.58h0a.25.25,0,0,1-.12.08,6.9,6.9,0,0,1-1.41.41c-.7.1-1.78-.93-2.2-1.35A.43.43,0,0,1,182.64,112.94Z" style="fill:#FF725E"></path><path d="M182.64,112.94a8.6,8.6,0,0,1,1-1.71.42.42,0,0,1,.59-.06l.06.06,2.24,2.45a.41.41,0,0,1,0,.58h0a.25.25,0,0,1-.12.08,6.9,6.9,0,0,1-1.41.41c-.7.1-1.78-.93-2.2-1.35A.43.43,0,0,1,182.64,112.94Z" style="isolation:isolate;opacity:0.30000001192092896"></path><path d="M219.08,134.07c1.91,1.48,4,3.06,6.1,4.5s4.21,2.89,6.38,4.22,4.37,2.57,6.59,3.75l1.67.85,1.7.79c.56.27,1.13.51,1.71.73l.85.35c.29.11.6.25.78.3a19.63,19.63,0,0,0,3.2.69c1.18.17,2.42.29,3.68.38,2.51.16,5.09.23,7.68.24s5.21,0,7.82-.08l7.85-.22.49,3.93a154.85,154.85,0,0,1-15.89,2.35c-2.69.24-5.39.42-8.15.44-1.38,0-2.78,0-4.22-.13a22.23,22.23,0,0,1-4.58-.75c-.46-.12-.75-.24-1.09-.35l-1-.35c-.67-.22-1.33-.46-2-.73l-1.94-.78-1.9-.84a74.77,74.77,0,0,1-7.33-3.8c-2.36-1.39-4.68-2.83-6.92-4.37a78.31,78.31,0,0,1-6.6-5Z" style="fill:#fd897b"></path><path d="M208.7,129.58c2.49-1.94,12.74,4.41,15.86,7.06l-2.27,13.73s-14.75-6.18-15.64-10.4C205.73,135.56,206.82,131.06,208.7,129.58Z" style="fill:#1a2e35"></path><path d="M274,150.91l6.18-4.79.49,7.41s-4.26,2.64-7.07,1Z" style="fill:#fd897b"></path><polygon points="285.69 145.39 288.85 148.91 280.63 153.53 280.14 146.12 285.69 145.39" style="fill:#fd897b"></polygon><polygon points="168.28 351.47 176.07 352.05 178.91 334.12 171.13 333.54 168.28 351.47" style="fill:#fd897b"></polygon><polygon points="113.17 326.41 119.78 330.57 131.55 316.61 124.94 312.44 113.17 326.41" style="fill:#fd897b"></polygon><path d="M121.87,329.08l-6.19-6.23a.63.63,0,0,0-.82-.06L109.23,327a1.26,1.26,0,0,0-.19,1.77l.09.1c2.19,2.13,3.36,3.05,6.08,5.79,1.67,1.69,3.94,4.32,6.25,6.65s4.73.16,4-1c-3.38-5.27-2.77-7.24-3-9.92A2,2,0,0,0,121.87,329.08Z" style="fill:#1a2e35"></path><path d="M176.59,350.93h-8.78a.66.66,0,0,0-.65.54l-1.39,6.94a1.18,1.18,0,0,0,.93,1.37h0a1.31,1.31,0,0,0,.28,0c3.06,0,4.55-.23,8.41-.23,2.37,0,9,.24,12.31.24s3.64-3.24,2.29-3.53c-6-1.32-10.13-3.13-12.1-4.87A1.94,1.94,0,0,0,176.59,350.93Z" style="fill:#1a2e35"></path><polygon points="178.91 334.12 177.33 344.08 169.65 342.79 171.12 333.55 178.91 334.12" style="fill:#e77064"></polygon><polygon points="124.94 312.45 131.55 316.61 126.68 322.39 119.92 318.4 124.94 312.45" style="fill:#e77064"></polygon><path d="M174.2,171.13l31.14,6.07c16.09-43.57,12.59-45,12.59-45a62.06,62.06,0,0,0-7-3.3l-.42-.16c-2-.73-2.4-.84-5.06-1.62-4.58-1.09-8.85-2-14.14-2.75l-1-.14c-1-.12-1.91-.22-2.83-.31-.62-.07-1.24-.11-1.83-.15l-2-.11c-3.42-.17-5.87-.12-5.87-.12C178.73,150.75,177.19,158.56,174.2,171.13Z" style="fill:#1a2e35"></path><path d="M195.81,108.74c0,4.72-.73,13.23-4.51,15.65,0,0,.35,4.86,8.8,6.5,9.3,1.81,5.34-3.75,5.34-3.75-4.83-2.2-4-5.94-2.4-9.3Z" style="fill:#fd897b"></path><path d="M198.76,112.45l4.28,5.39a16.07,16.07,0,0,0-.92,2.42c-1.89-.66-4.14-3.3-4-5.37A6.89,6.89,0,0,1,198.76,112.45Z" style="fill:#e77064"></path><path d="M195.36,97.9c-1,7.69-1.61,10.92,1.47,15.57,4.63,7,14.29,6.55,17.58-.68,3-6.51,4.12-18-2.73-22.45a10.57,10.57,0,0,0-14.65,3h0A10.67,10.67,0,0,0,195.36,97.9Z" style="fill:#fd897b"></path><path d="M220.39,85.72a9.72,9.72,0,0,1-.27,3.64,9.83,9.83,0,0,0-.29-1.19c-2.74-9.06-15.08-6.9-18.8-3-6-1.72-11.71-.35-10.95,7a9.14,9.14,0,0,0,1.95,5.2c-.93,2.58,0,6.69,3.07,6.81,4.32.17,8.42-5.55,10.07-8.69,3,.51,7.32,1,10.6.2.55.33,1,.56,1,.56C220.26,94.38,222.92,92.57,220.39,85.72Z" style="fill:#1a2e35"></path><path d="M192.7,103.15a5.71,5.71,0,0,0,1.31,4.12c1.3,1.51,3,.62,3.61-1.17.51-1.62.44-4.35-1.3-5.2a2.54,2.54,0,0,0-3.38,1.22h0A2.59,2.59,0,0,0,192.7,103.15Z" style="fill:#fd897b"></path><path d="M204.87,177.2s.12,61.82-4.94,85.1c-5.26,24.22-20.73,79.32-20.73,79.32L168,340.17s8.77-55.66,12.5-79.73c4.07-26.23,1.58-87.68,1.58-87.68Z" style="fill:#FF725E"></path><path d="M204.87,177.2s.12,61.82-4.94,85.1c-5.26,24.22-20.73,79.32-20.73,79.32L168,340.17s8.77-55.66,12.5-79.73c4.07-26.23,1.58-87.68,1.58-87.68Z" style="isolation:isolate;opacity:0.30000001192092896"></path><polygon points="181.11 342.59 166.08 340.65 166.72 335.33 183.78 337.33 181.11 342.59" style="fill:#1a2e35"></polygon><path d="M197.12,175.6s-16.77,51.09-25.1,80.52c-8.78,31.05-42.44,65.39-42.44,65.39l-9.65-5.58s23-32.6,31.45-61.57c17.21-58.81,10.14-71.27,22.82-83.23Z" style="fill:#FF725E"></path><path d="M197.12,175.6s-16.77,51.09-25.1,80.52c-8.78,31.05-42.44,65.39-42.44,65.39l-9.65-5.58s23-32.6,31.45-61.57c17.21-58.81,10.14-71.27,22.82-83.23Z" style="isolation:isolate;opacity:0.30000001192092896"></path><polygon points="131.15 323.06 117.74 315.32 121.08 310.54 135.97 318.75 131.15 323.06" style="fill:#1a2e35"></polygon><path d="M206.46,102.27c-.12.62.11,1.18.52,1.26s.83-.36,1-1-.11-1.19-.52-1.27S206.58,101.65,206.46,102.27Z" style="fill:#1a2e35"></path><path d="M213.45,103.63c-.12.62.11,1.19.52,1.27s.83-.36.95-1-.11-1.19-.52-1.26S213.57,103,213.45,103.63Z" style="fill:#1a2e35"></path><path d="M214.22,102.65l1.57-.13S214.8,103.53,214.22,102.65Z" style="fill:#1a2e35"></path><path d="M211.4,104.34a16.73,16.73,0,0,0,1.44,4.37,2.7,2.7,0,0,1-2.29,0Z" style="fill:#fd5652"></path><path d="M207.93,110.71h0a5.25,5.25,0,0,1-3.89-2.92.18.18,0,0,1,.09-.24h0a.19.19,0,0,1,.24.1,5,5,0,0,0,3.62,2.7.18.18,0,0,1,.15.21h0A.19.19,0,0,1,207.93,110.71Z" style="fill:#1a2e35"></path><path d="M204.87,99.61a.39.39,0,0,1-.37-.37.4.4,0,0,1,.12-.27,3.69,3.69,0,0,1,3.25-.93.38.38,0,0,1,.26.46.36.36,0,0,1-.44.26h0a3,3,0,0,0-2.57.76A.36.36,0,0,1,204.87,99.61Z" style="fill:#1a2e35"></path><path d="M217.33,101a.36.36,0,0,1-.34-.23A3,3,0,0,0,215,99a.37.37,0,0,1-.3-.43h0a.38.38,0,0,1,.43-.3,3.69,3.69,0,0,1,2.54,2.23.37.37,0,0,1-.19.49h0Z" style="fill:#1a2e35"></path><path d="M207.3,107.75a2,2,0,0,1-1.6-.79,6.33,6.33,0,0,1-.8-5c.57-3.16,2.55-5.73,4.42-5.73a2.08,2.08,0,0,1,1.61.8,6.33,6.33,0,0,1,.8,5C211.16,105.19,209.17,107.75,207.3,107.75Zm2-11.24c-1.75,0-3.63,2.48-4.18,5.52-.35,2-.07,3.8.75,4.77a1.79,1.79,0,0,0,1.41.7c1.76,0,3.63-2.47,4.18-5.51h0a6,6,0,0,0-.75-4.77,1.77,1.77,0,0,0-1.39-.71Z" style="fill:#f9f9f9"></path><path d="M215.07,108.75h0a2.14,2.14,0,0,1-1.67-.84,5.83,5.83,0,0,1-.81-4.63c.51-2.94,2.43-5.32,4.28-5.32h0a2.18,2.18,0,0,1,1.67.85,5.88,5.88,0,0,1,.81,4.62h0C218.85,106.38,216.93,108.75,215.07,108.75Zm1.77-10.54c-1.74,0-3.54,2.29-4,5.12a5.69,5.69,0,0,0,.76,4.42,2,2,0,0,0,1.48.75h0c1.74,0,3.55-2.28,4-5.11h0a5.74,5.74,0,0,0-.75-4.42,2,2,0,0,0-1.48-.76Z" style="fill:#f9f9f9"></path><path d="M124.17,332.71h0c-1,0-2-1.54-2.59-2.43a.18.18,0,0,1,0-.2.2.2,0,0,1,.19-.08c.32.07,3.07.67,3.42,1.61a.61.61,0,0,1-.11.62A1,1,0,0,1,124.17,332.71Zm-2.09-2.25c.77,1.16,1.52,1.85,2.06,1.88a.7.7,0,0,0,.6-.33.25.25,0,0,0,.05-.27C124.61,331.24,123.18,330.74,122.08,330.46Z" style="fill:#FF725E"></path><path d="M122.53,330.46a3.94,3.94,0,0,1-.9-.1.21.21,0,0,1-.13-.13.28.28,0,0,1,0-.18c.07-.06,1.6-1.57,2.73-1.57h.08a1,1,0,0,1,.72.38.66.66,0,0,1,.08.81C124.79,330.21,123.51,330.46,122.53,330.46Zm-.45-.39c.94.11,2.46-.16,2.77-.61.05-.07.09-.18-.06-.37a.57.57,0,0,0-.46-.24,4.17,4.17,0,0,0-2.25,1.22Z" style="fill:#FF725E"></path><path d="M179.46,352.3A12.73,12.73,0,0,1,177,352a.19.19,0,0,1-.15-.16.19.19,0,0,1,.1-.19c.37-.18,3.58-1.78,4.51-1.24a.61.61,0,0,1,.28.5,1.06,1.06,0,0,1-.39.89A3,3,0,0,1,179.46,352.3Zm-1.83-.54c1.71.28,3,.21,3.5-.22a.72.72,0,0,0,.25-.6.21.21,0,0,0-.1-.19c-.5-.29-2.28.39-3.65,1Z" style="fill:#FF725E"></path><path d="M177.05,352h-.11a.18.18,0,0,1-.08-.18c0-.14.48-3.32,2.22-3.32h.15c.5.05.64.3.67.51.14.88-1.8,2.58-2.78,3Zm2-3.16c-1.13,0-1.63,1.84-1.8,2.64,1-.59,2.33-1.92,2.25-2.45,0,0,0-.16-.35-.19Z" style="fill:#FF725E"></path><path d="M207.23,101.29l1.57-.14S207.81,102.17,207.23,101.29Z" style="fill:#1a2e35"></path><path d="M200.36,137.54c-13-4.93-17.06-12.31-16.75-13.86h0l2,.12H186a12.31,12.31,0,0,1,1.49.13c.92.08,1.87.18,2.83.31l1,.14a101.47,101.47,0,0,1,14.14,2.75c2.12.62,2.82.82,4,1.24l1,.38.42.16C211.92,131.15,211.69,135.73,200.36,137.54Z" style="fill:#fd897b"></path><path d="M200.36,137.54c-13-4.93-17.06-12.31-16.75-13.86h0l2,.12H186c2.64,3.75,8.42,8.93,14.31,9.64,4.74-1,9.21-2.14,9.17-5.07l1,.38.42.16C211.92,131.15,211.69,135.73,200.36,137.54Z" style="fill:#FF725E"></path><path d="M200.36,137.54c-13-4.93-17.06-12.31-16.75-13.86h0l2,.12H186c2.64,3.75,8.42,8.93,14.31,9.64,4.74-1,9.21-2.14,9.17-5.07l1,.38.42.16C211.92,131.15,211.69,135.73,200.36,137.54Z" style="isolation:isolate;opacity:0.30000001192092896"></path><path d="M174.09,169.21l-2,2.52c-.15.19.07.46.43.53l32.66,6.36c.28.06.54,0,.59-.21l.82-2.73c.06-.19-.15-.4-.46-.46l-31.54-6.14A.57.57,0,0,0,174.09,169.21Z" style="fill:#1a2e35"></path><path d="M177.64,173.56l-.84-.16c-.17,0-.28-.14-.25-.25l1.1-3.54c0-.11.2-.16.36-.13l.85.16c.17,0,.28.15.25.25l-1.1,3.55A.31.31,0,0,1,177.64,173.56Z" style="fill:#FF725E"></path><path d="M177.64,173.56l-.84-.16c-.17,0-.28-.14-.25-.25l1.1-3.54c0-.11.2-.16.36-.13l.85.16c.17,0,.28.15.25.25l-1.1,3.55A.31.31,0,0,1,177.64,173.56Z" style="isolation:isolate;opacity:0.30000001192092896"></path><path d="M179.86,135.61c-.38,2.37-.74,5-1,7.46s-.49,5-.61,7.56q-.1,1.89-.12,3.78v3.75a64.07,64.07,0,0,0,.57,7.32,7.09,7.09,0,0,0,1,2.33,24.76,24.76,0,0,0,2,2.78,62.11,62.11,0,0,0,5.12,5.39c1.83,1.76,3.75,3.46,5.72,5.12s4,3.31,6,4.9l-2.15,3.32a104,104,0,0,1-13.46-8.79,56.81,56.81,0,0,1-6.2-5.5,28,28,0,0,1-2.83-3.41,12.93,12.93,0,0,1-2.21-4.79l-.37-2.12c-.13-.69-.22-1.38-.3-2.06-.2-1.38-.31-2.75-.42-4.12a77.15,77.15,0,0,1-.19-8.19c.08-2.71.23-5.41.5-8.1s.61-5.33,1.15-8.11Z" style="fill:#fd897b"></path><path d="M173.22,125.63c-4.28,3.46-3.26,13.74-3.26,13.74l14.4,4.74S183.7,132.26,183,128C182.14,122.93,177.42,122.22,173.22,125.63Z" style="fill:#1a2e35"></path><path d="M196.78,185.36l6.51-2.42-1,6.19s-4.72,1.7-7.14-.48Z" style="fill:#fd897b"></path><polygon points="211.04 183.86 211.04 188.64 202.29 189.13 203.29 182.94 211.04 183.86" style="fill:#fd897b"></polygon><path d="M202.79,178.46l-.84-.16c-.17,0-.28-.14-.25-.25l1.1-3.54c0-.11.2-.16.37-.13l.84.16c.17,0,.28.15.25.25l-1.1,3.55C203.13,178.44,203,178.5,202.79,178.46Z" style="fill:#FF725E"></path><path d="M202.79,178.46l-.84-.16c-.17,0-.28-.14-.25-.25l1.1-3.54c0-.11.2-.16.37-.13l.84.16c.17,0,.28.15.25.25l-1.1,3.55C203.13,178.44,203,178.5,202.79,178.46Z" style="isolation:isolate;opacity:0.30000001192092896"></path><path d="M190.22,176l-.85-.16c-.17,0-.28-.14-.24-.25l1.1-3.54c0-.11.19-.16.36-.13l.85.16c.16,0,.28.15.24.25l-1.1,3.55C190.55,176,190.39,176.05,190.22,176Z" style="fill:#FF725E"></path><path d="M190.22,176l-.85-.16c-.17,0-.28-.14-.24-.25l1.1-3.54c0-.11.19-.16.36-.13l.85.16c.16,0,.28.15.24.25l-1.1,3.55C190.55,176,190.39,176.05,190.22,176Z" style="isolation:isolate;opacity:0.30000001192092896"></path><path d="M126.53,234.31l51.84,113.22a10.73,10.73,0,0,0,14.18,5.27l8.23-3.76,190.57-87.25a10.72,10.72,0,0,0,5.28-14.17l-45.81-100-6-13.21a10.75,10.75,0,0,0-14.18-5.27l-198.81,91A10.74,10.74,0,0,0,126.53,234.31Z" style="fill:#FF725E"></path><path d="M126.53,234.31l51.84,113.22a10.73,10.73,0,0,0,14.18,5.27l8.23-3.76,190.57-87.25a10.72,10.72,0,0,0,5.28-14.17l-45.81-100-6-13.21a10.75,10.75,0,0,0-14.18-5.27l-198.81,91A10.74,10.74,0,0,0,126.53,234.31Z" style="fill:#fff;isolation:isolate;opacity:0.10000000149011612"></path><rect x="149.45" y="227.51" width="240.04" height="61.36" transform="translate(-83.02 135.61) rotate(-24.6)" style="fill:#FF725E"></rect><rect x="149.45" y="227.51" width="240.04" height="61.36" transform="translate(-83.02 135.61) rotate(-24.6)" style="fill:#fff;isolation:isolate;opacity:0.30000001192092896"></rect><rect x="216.55" y="236.72" width="151.69" height="21.96" transform="translate(-76.57 144.2) rotate(-24.6)" style="fill:#FF725E"></rect><rect x="216.55" y="236.72" width="151.69" height="21.96" transform="translate(-76.57 144.2) rotate(-24.6)" style="fill:#fff;isolation:isolate;opacity:0.800000011920929"></rect><rect x="135.72" y="208.94" width="240.58" height="32.81" transform="translate(-70.87 128.02) rotate(-24.78)" style="fill:#FF725E"></rect><rect x="135.72" y="208.94" width="240.58" height="32.81" transform="translate(-70.87 128.02) rotate(-24.78)" style="isolation:isolate;opacity:0.30000001192092896"></rect><path d="M156.17,235.73,200.78,349l190.57-87.25a10.72,10.72,0,0,0,5.28-14.17l-45.81-100L162.21,221.86A10.74,10.74,0,0,0,156.17,235.73Z" style="fill:#FF725E"></path><rect x="408.22" y="199.96" width="1" height="4.71" transform="translate(-43.96 146.93) rotate(-19.36)" style="fill:#FF725E"></rect><rect x="408.22" y="199.96" width="1" height="4.71" transform="translate(-43.96 146.93) rotate(-19.36)" style="fill:#fff;isolation:isolate;opacity:0.10000000149011612"></rect><rect x="402.63" y="177.23" width="1" height="18.56" transform="translate(-39.02 144.11) rotate(-19.35)" style="fill:#FF725E"></rect><rect x="402.63" y="177.23" width="1" height="18.56" transform="translate(-39.02 144.11) rotate(-19.35)" style="fill:#fff;isolation:isolate;opacity:0.10000000149011612"></rect><path d="M169.44,222.25l206.3-72.45a10.72,10.72,0,0,1,13.63,6.55l41.26,117.49a10.73,10.73,0,0,1-6.54,13.64l-206.3,72.45a10.75,10.75,0,0,1-13.64-6.55L162.89,235.89A10.73,10.73,0,0,1,169.44,222.25Z" style="fill:#FF725E"></path><path d="M169.44,222.25l206.3-72.45a10.72,10.72,0,0,1,13.63,6.55l41.26,117.49a10.73,10.73,0,0,1-6.54,13.64l-206.3,72.45a10.75,10.75,0,0,1-13.64-6.55L162.89,235.89A10.73,10.73,0,0,1,169.44,222.25Z" style="fill:#fff;isolation:isolate;opacity:0.10000000149011612"></path><rect x="180.88" y="239.55" width="240.04" height="54.17" transform="translate(-71.35 114.76) rotate(-19.35)" style="fill:#FF725E"></rect><rect x="180.88" y="239.55" width="240.04" height="54.17" transform="translate(-71.35 114.76) rotate(-19.35)" style="fill:#fff;isolation:isolate;opacity:0.30000001192092896"></rect><rect x="331.12" y="184.44" width="49.62" height="7.73" transform="translate(-42.29 128.57) rotate(-19.35)" style="fill:#FF725E"></rect><rect x="331.12" y="184.44" width="49.62" height="7.73" transform="translate(-42.29 128.57) rotate(-19.35)" style="fill:#fff;isolation:isolate;opacity:0.800000011920929"></rect><rect x="371.4" y="272.23" width="39.81" height="4.04" transform="translate(-68.76 145.15) rotate(-19.35)" style="fill:#FF725E"></rect><rect x="371.4" y="272.23" width="39.81" height="4.04" transform="translate(-68.76 145.15) rotate(-19.35)" style="fill:#fff;isolation:isolate;opacity:0.800000011920929"></rect><rect x="362.8" y="281.43" width="51.3" height="4.04" transform="translate(-71.98 144.72) rotate(-19.35)" style="fill:#FF725E"></rect><rect x="362.8" y="281.43" width="51.3" height="4.04" transform="translate(-71.98 144.72) rotate(-19.35)" style="fill:#fff;isolation:isolate;opacity:0.800000011920929"></rect><rect x="215.91" y="332.73" width="25.65" height="8.69" transform="translate(-98.77 94.83) rotate(-19.35)" style="fill:#FF725E"></rect><rect x="215.91" y="332.73" width="25.65" height="8.69" transform="translate(-98.77 94.83) rotate(-19.35)" style="fill:#fff;isolation:isolate;opacity:0.800000011920929"></rect><path d="M368.79,258.5l28.26-9.92a6,6,0,0,0,3.66-7.61h0a6,6,0,0,0-7.61-3.66l-28.27,9.93a6,6,0,0,0-3.66,7.61h0A6,6,0,0,0,368.79,258.5Z" style="fill:#FF725E"></path><path d="M320.38,275.5l28.27-9.93A6,6,0,0,0,352.3,258h0a6,6,0,0,0-7.61-3.65l-28.26,9.93a6,6,0,0,0-3.66,7.61h0A6,6,0,0,0,320.38,275.5Z" style="fill:#FF725E"></path><path d="M272,292.5l28.27-9.93A6,6,0,0,0,303.9,275h0a6,6,0,0,0-7.61-3.65L268,281.24a6,6,0,0,0-3.65,7.61h0A6,6,0,0,0,272,292.5Z" style="fill:#FF725E"></path><path d="M223.57,309.5l28.27-9.93A6,6,0,0,0,255.5,292h0a6,6,0,0,0-7.61-3.65l-28.27,9.93a6,6,0,0,0-3.66,7.61h0A6,6,0,0,0,223.57,309.5Z" style="fill:#FF725E"></path><g style="opacity:0.800000011920929"><path d="M368.79,258.5l28.26-9.92a6,6,0,0,0,3.66-7.61h0a6,6,0,0,0-7.61-3.66l-28.27,9.93a6,6,0,0,0-3.66,7.61h0A6,6,0,0,0,368.79,258.5Z" style="fill:#fff"></path><path d="M320.38,275.5l28.27-9.93A6,6,0,0,0,352.3,258h0a6,6,0,0,0-7.61-3.65l-28.26,9.93a6,6,0,0,0-3.66,7.61h0A6,6,0,0,0,320.38,275.5Z" style="fill:#fff"></path><path d="M272,292.5l28.27-9.93A6,6,0,0,0,303.9,275h0a6,6,0,0,0-7.61-3.65L268,281.24a6,6,0,0,0-3.65,7.61h0A6,6,0,0,0,272,292.5Z" style="fill:#fff"></path><path d="M223.57,309.5l28.27-9.93A6,6,0,0,0,255.5,292h0a6,6,0,0,0-7.61-3.65l-28.27,9.93a6,6,0,0,0-3.66,7.61h0A6,6,0,0,0,223.57,309.5Z" style="fill:#fff"></path></g><rect x="357.45" y="208" width="34.86" height="24.02" rx="4.1" transform="translate(-51.72 136.64) rotate(-19.35)" style="fill:#FF725E"></rect><rect x="357.45" y="208" width="34.86" height="24.02" rx="4.1" transform="translate(-51.72 136.64) rotate(-19.35)" style="isolation:isolate;opacity:0.30000001192092896"></rect><path d="M231.68,232a14.45,14.45,0,0,0-18.43-8.86h0l-20.32,7.63-.26.07-.6.25-.37.14h0a14,14,0,0,0,10.31,26l19.24-6.4a16,16,0,0,0,1.64-.46,12,12,0,0,0,1.17-.48h0A14.44,14.44,0,0,0,231.68,232Z" style="fill:#FF725E"></path><path d="M231.68,232a14.45,14.45,0,0,0-18.43-8.86h0l-20.32,7.63-.26.07-.6.25-.37.14h0a14,14,0,0,0,10.31,26l19.24-6.4a16,16,0,0,0,1.64-.46,12,12,0,0,0,1.17-.48h0A14.44,14.44,0,0,0,231.68,232Z" style="fill:#fff;isolation:isolate;opacity:0.800000011920929"></path></g></svg>